<svg width="50" height="37" viewBox="0 0 50 37" fill="none" xmlns="http://www.w3.org/2000/svg">
<path fill-rule="evenodd" clip-rule="evenodd" d="M3.33333 6.66667C3.33333 4.82573 4.82573 3.33333 6.66667 3.33333H43.3333C45.1743 3.33333 46.6667 4.82573 46.6667 6.66667V30C46.6667 31.841 45.1743 33.3333 43.3333 33.3333H6.66667C4.82573 33.3333 3.33333 31.841 3.33333 30V6.66667ZM6.66667 0C2.98477 0 0 2.98477 0 6.66667V30C0 33.682 2.98477 36.6667 6.66667 36.6667H43.3333C47.0153 36.6667 50 33.682 50 30V6.66667C50 2.98477 47.0153 0 43.3333 0H6.66667ZM7.5 6.66667C7.03977 6.66667 6.66667 7.03977 6.66667 7.5V12.5151C6.66667 12.9754 7.03977 13.3485 7.5 13.3485H15.8333C16.2936 13.3485 16.6667 12.9754 16.6667 12.5151V7.5C16.6667 7.03977 16.2936 6.66667 15.8333 6.66667H7.5Z" fill="#858585"/>
<path d="M31.6667 28.95C37.3754 28.95 42.0033 24.3221 42.0033 18.6133C42.0033 12.9046 37.3754 8.27667 31.6667 8.27667C25.9579 8.27667 21.33 12.9046 21.33 18.6133C21.33 24.3221 25.9579 28.95 31.6667 28.95Z" stroke="#858585" stroke-width="6.25064"/>
</svg>
