<svg width="25" height="25" viewBox="0 0 25 25" fill="none" xmlns="http://www.w3.org/2000/svg">
<path fill-rule="evenodd" clip-rule="evenodd" d="M12.5 0C5.59647 0 0 5.59644 0 12.5C0 19.4035 5.59645 25 12.5 25C19.4036 25 25 19.4035 25 12.5C25 5.59644 19.4034 0 12.5 0ZM1.79305 12.5C1.79305 6.5867 6.58674 1.79303 12.5 1.79303C18.4133 1.79303 23.207 6.5867 23.207 12.5C23.207 18.4131 18.4133 23.207 12.5 23.207C6.58674 23.207 1.79305 18.4131 1.79305 12.5ZM13.4436 6.83807C13.4436 6.31688 13.021 5.89436 12.4999 5.89436C11.9787 5.89436 11.5561 6.31688 11.5561 6.83807V12.5003C11.5561 12.7506 11.6556 12.9906 11.8326 13.1676L15.6074 16.9424C15.9759 17.3109 16.5734 17.3109 16.942 16.9424C17.3105 16.5739 17.3105 15.9763 16.942 15.6078L13.4436 12.1094V6.83807Z" fill="black"/>
</svg>
