<svg width="26" height="22" viewBox="0 0 26 22" fill="none" xmlns="http://www.w3.org/2000/svg">
<path d="M13 21.25C12.8355 21.251 12.6724 21.2194 12.5201 21.1572C12.3678 21.095 12.2293 21.0034 12.1125 20.8875L2.40002 11.1625C1.18173 9.93148 0.498352 8.26946 0.498352 6.53751C0.498352 4.80555 1.18173 3.14353 2.40002 1.91251C3.62785 0.688144 5.29106 0.000595093 7.02502 0.000595093C8.75898 0.000595093 10.4222 0.688144 11.65 1.91251L13 3.26251L14.35 1.91251C15.5779 0.688144 17.2411 0.000595093 18.975 0.000595093C20.709 0.000595093 22.3722 0.688144 23.6 1.91251C24.8183 3.14353 25.5017 4.80555 25.5017 6.53751C25.5017 8.26946 24.8183 9.93148 23.6 11.1625L13.8875 20.8875C13.7707 21.0034 13.6322 21.095 13.4799 21.1572C13.3276 21.2194 13.1645 21.251 13 21.25ZM7.02502 2.50001C6.49587 2.49761 5.9715 2.60023 5.48228 2.80192C4.99307 3.00362 4.54874 3.30037 4.17502 3.67501C3.4201 4.43391 2.99632 5.46082 2.99632 6.53126C2.99632 7.6017 3.4201 8.6286 4.17502 9.38751L13 18.225L21.825 9.38751C22.58 8.6286 23.0037 7.6017 23.0037 6.53126C23.0037 5.46082 22.58 4.43391 21.825 3.67501C21.0546 2.94714 20.0349 2.54163 18.975 2.54163C17.9152 2.54163 16.8954 2.94714 16.125 3.67501L13.8875 5.92501C13.7713 6.04217 13.6331 6.13516 13.4807 6.19862C13.3284 6.26208 13.165 6.29475 13 6.29475C12.835 6.29475 12.6716 6.26208 12.5193 6.19862C12.367 6.13516 12.2287 6.04217 12.1125 5.92501L9.87502 3.67501C9.50131 3.30037 9.05698 3.00362 8.56776 2.80192C8.07855 2.60023 7.55418 2.49761 7.02502 2.50001Z" fill="#231F20"/>
</svg>
