<svg width="244" height="47" viewBox="0 0 244 47" fill="none" xmlns="http://www.w3.org/2000/svg">
<path d="M8.21875 5.57031C7.42188 5.57031 6.85938 5.57031 6.53125 5.57031C6.21875 5.57031 5.96094 5.4375 5.75781 5.17188C5.57031 4.89062 5.53125 4.57031 5.64062 4.21094L5.875 3.20312C5.9375 2.95312 6.08594 2.73438 6.32031 2.54688C6.57031 2.34375 6.78906 2.24219 6.97656 2.24219H15.1328C17.3359 2.24219 19.1016 2.79688 20.4297 3.90625C21.7578 5.01562 22.4219 6.64063 22.4219 8.78125C22.4219 10.9219 22.0234 12.9375 21.2266 14.8281C19.8516 18.0625 17.6328 20.1719 14.5703 21.1562L16.7734 35.3594C16.9297 36.4531 16.5781 37 15.7188 37H14.0781C13.6562 37 13.3516 36.875 13.1641 36.625C12.9766 36.3594 12.8516 35.9219 12.7891 35.3125L10.9609 21.7422L7.98438 21.7891L4.375 35.9453C4.1875 36.6484 3.71094 37 2.94531 37H1.5625C1.17188 37 0.890625 36.8594 0.71875 36.5781C0.53125 36.2812 0.492188 35.9297 0.601562 35.5234L8.21875 5.57031ZM12.1094 5.61719L8.85156 18.5312L11.8281 18.3672C14 18.2734 15.6484 17.3594 16.7734 15.625C17.9141 13.875 18.4844 11.5312 18.4844 8.59375C18.4844 7.75 18.2109 7.07031 17.6641 6.55469C17.1328 6.02344 16.4531 5.73438 15.625 5.6875C14.8125 5.64062 13.6406 5.61719 12.1094 5.61719ZM25.375 30.3672C24.9375 32.7109 25.375 34.0078 26.6875 34.2578C27.8594 33.8203 29.3125 32.625 31.0469 30.6719C31.3438 30.4062 31.6641 30.375 32.0078 30.5781L32.9219 31.1406C33.3438 31.4688 33.4844 31.8203 33.3438 32.1953C32.7344 33.3516 31.6094 34.5781 29.9688 35.875C28.3281 37.1719 27.0078 37.7266 26.0078 37.5391C23.7422 36.9609 22.4141 35.7734 22.0234 33.9766C21.5703 31.5703 21.9688 28.2656 23.2188 24.0625C24.4688 19.8594 26.2109 16.6875 28.4453 14.5469C29.2266 13.8281 30.1953 13.2969 31.3516 12.9531C32.5234 12.5938 33.7578 12.6875 35.0547 13.2344C36.3516 13.7812 36.9922 15.3438 36.9766 17.9219C36.9609 20.5 35.8281 22.9375 33.5781 25.2344C31.3438 27.5156 28.6094 29.2266 25.375 30.3672ZM25.9609 27.25C27.4609 26.6094 28.7422 25.8594 29.8047 25C30.8828 24.1406 31.7656 23.0938 32.4531 21.8594C33.1562 20.625 33.5078 19.3594 33.5078 18.0625C33.5078 16.7656 33.1328 16.1172 32.3828 16.1172C30.9141 16.1172 29.625 17.3203 28.5156 19.7266C27.4219 22.1172 26.5703 24.625 25.9609 27.25ZM42.4844 13.8672C42.6406 13.2578 42.7812 12.8984 42.9062 12.7891C43.0469 12.6797 43.2266 12.625 43.4453 12.625H45.4141C46.2109 12.625 46.4688 13.0859 46.1875 14.0078L42.5781 26.1016L47.5703 17.8516C48.5391 16.2422 49.6094 14.9688 50.7812 14.0312C51.9688 13.0938 52.9453 12.625 53.7109 12.625H54.7188C55.2344 12.625 55.6328 12.7109 55.9141 12.8828C56.2109 13.0547 56.4453 13.4453 56.6172 14.0547C56.8047 14.6641 56.7188 15.5625 56.3594 16.75L53.9219 25.7266L58.5156 17.8047C59.5156 16.0703 60.5859 14.7734 61.7266 13.9141C62.8828 13.0547 63.8594 12.625 64.6562 12.625H65.6641C66.1797 12.625 66.5781 12.7109 66.8594 12.8828C67.1562 13.0547 67.3906 13.4453 67.5625 14.0547C67.7344 14.6641 67.6484 15.5625 67.3047 16.75L61.9375 36.3203C61.8281 36.7734 61.5703 37 61.1641 37H58.6562C58.1875 37 58.0625 36.6172 58.2812 35.8516L63.3203 19.375C63.5703 18.5156 63.6953 17.9531 63.6953 17.6875C63.6953 17.4062 63.5859 17.2656 63.3672 17.2656C63.1484 17.2656 62.8828 17.4141 62.5703 17.7109C62.2734 17.9922 61.8672 18.5156 61.3516 19.2812C60.7422 20.1562 60.0781 21.1797 59.3594 22.3516C58.6406 23.5078 57.6953 25 56.5234 26.8281C55.3516 28.6562 54.5781 29.8906 54.2031 30.5312C52.7656 32.8594 51.6953 34.7891 50.9922 36.3203C50.7891 36.7734 50.5156 37 50.1719 37H47.7109C47.2422 37 47.1172 36.6172 47.3359 35.8516L52.375 19.375C52.625 18.5156 52.75 17.9531 52.75 17.6875C52.75 17.4062 52.6406 17.2656 52.4219 17.2656C52.2031 17.2656 51.9375 17.4141 51.625 17.7109C51.3281 17.9922 50.9219 18.5156 50.4062 19.2812C49.7969 20.1562 49.0625 21.2891 48.2031 22.6797C47.3438 24.0703 46.2578 25.7891 44.9453 27.8359C42.4766 31.6016 40.7266 34.4297 39.6953 36.3203C39.4453 36.7734 39.0625 37 38.5469 37H37.2109C37.0234 37 36.8672 36.875 36.7422 36.625C36.6016 36.3594 36.5781 36.0703 36.6719 35.7578L42.4844 13.8672ZM68.2188 30.0391C68.3594 25.7578 69.4297 21.7031 71.4297 17.875C73.4297 14.0469 75.9766 12.1641 79.0703 12.2266C80.6797 12.3203 81.9297 13.125 82.8203 14.6406C83.4922 15.6875 83.7656 17.4609 83.6406 19.9609C83.5156 24.6953 82.2188 29.0781 79.75 33.1094C78.0469 36.0625 75.7578 37.4844 72.8828 37.375C71.8672 37.3438 70.9219 36.8984 70.0469 36.0391C68.7344 34.7891 68.125 32.7891 68.2188 30.0391ZM76.3984 31.9609C78.5703 28.5391 79.7188 24.7109 79.8438 20.4766C79.875 18.6016 79.7734 17.3438 79.5391 16.7031C79.3203 16.0625 78.8516 15.7344 78.1328 15.7188C77.4141 15.7031 76.7578 16.0391 76.1641 16.7266C75.5703 17.4141 74.9922 18.3672 74.4297 19.5859C73.0078 22.4297 72.2344 25.7578 72.1094 29.5703C72.0469 32.4453 72.5469 33.9297 73.6094 34.0234C74.5312 34.0547 75.4609 33.3672 76.3984 31.9609ZM96.0625 5.21875L94.1875 12.625H96.6719C97.375 12.625 97.6172 12.9766 97.3984 13.6797L97.0703 14.9219C96.8359 15.625 96.4141 15.9766 95.8047 15.9766H93.3203L88.2344 35.9453C88.0469 36.6484 87.5625 37 86.7812 37H85.8906C85.375 37 85.0078 36.8594 84.7891 36.5781C84.5859 36.2812 84.5312 35.9062 84.625 35.4531L89.6172 15.9766H87.6953C87.0547 15.9766 86.8516 15.5938 87.0859 14.8281L87.4609 13.5391C87.6484 12.9297 88 12.625 88.5156 12.625H90.4375L92.3594 5.17188C92.5469 4.46875 93.0234 4.11719 93.7891 4.11719H95.0078C95.8984 4.11719 96.25 4.48438 96.0625 5.21875ZM98.3594 30.3672C97.9219 32.7109 98.3594 34.0078 99.6719 34.2578C100.844 33.8203 102.297 32.625 104.031 30.6719C104.328 30.4062 104.648 30.375 104.992 30.5781L105.906 31.1406C106.328 31.4688 106.469 31.8203 106.328 32.1953C105.719 33.3516 104.594 34.5781 102.953 35.875C101.312 37.1719 99.9922 37.7266 98.9922 37.5391C96.7266 36.9609 95.3984 35.7734 95.0078 33.9766C94.5547 31.5703 94.9531 28.2656 96.2031 24.0625C97.4531 19.8594 99.1953 16.6875 101.43 14.5469C102.211 13.8281 103.18 13.2969 104.336 12.9531C105.508 12.5938 106.742 12.6875 108.039 13.2344C109.336 13.7812 109.977 15.3438 109.961 17.9219C109.945 20.5 108.812 22.9375 106.562 25.2344C104.328 27.5156 101.594 29.2266 98.3594 30.3672ZM98.9453 27.25C100.445 26.6094 101.727 25.8594 102.789 25C103.867 24.1406 104.75 23.0938 105.438 21.8594C106.141 20.625 106.492 19.3594 106.492 18.0625C106.492 16.7656 106.117 16.1172 105.367 16.1172C103.898 16.1172 102.609 17.3203 101.5 19.7266C100.406 22.1172 99.5547 24.625 98.9453 27.25ZM122.266 37H121.023C120.633 37 120.336 36.8984 120.133 36.6953C119.945 36.4766 119.883 36.2109 119.945 35.8984L125.195 15.9766H122.5C121.859 15.9766 121.648 15.5938 121.867 14.8281L122.219 13.5391C122.344 12.9297 122.695 12.625 123.273 12.625H126.109L126.672 10.3984C127.5 7.27344 128.547 4.92969 129.812 3.36719C131.078 1.78906 132.258 0.84375 133.352 0.53125C134.336 0.234375 135.18 0.164062 135.883 0.320312L138.812 1.09375C139.844 1.34375 140.102 1.9375 139.586 2.875L138.953 4.02344C138.734 4.47656 138.18 4.55469 137.289 4.25781L134.219 3.20312C132.578 4.54687 131.297 6.94531 130.375 10.3984L129.789 12.625H133.258C133.93 12.625 134.164 12.9766 133.961 13.6797L133.633 14.9219C133.414 15.625 132.984 15.9766 132.344 15.9766H128.875L123.648 35.9453C123.461 36.6484 123 37 122.266 37ZM131.875 30.0391C132.016 25.7578 133.086 21.7031 135.086 17.875C137.086 14.0469 139.633 12.1641 142.727 12.2266C144.336 12.3203 145.586 13.125 146.477 14.6406C147.148 15.6875 147.422 17.4609 147.297 19.9609C147.172 24.6953 145.875 29.0781 143.406 33.1094C141.703 36.0625 139.414 37.4844 136.539 37.375C135.523 37.3438 134.578 36.8984 133.703 36.0391C132.391 34.7891 131.781 32.7891 131.875 30.0391ZM140.055 31.9609C142.227 28.5391 143.375 24.7109 143.5 20.4766C143.531 18.6016 143.43 17.3438 143.195 16.7031C142.977 16.0625 142.508 15.7344 141.789 15.7188C141.07 15.7031 140.414 16.0391 139.82 16.7266C139.227 17.4141 138.648 18.3672 138.086 19.5859C136.664 22.4297 135.891 25.7578 135.766 29.5703C135.703 32.4453 136.203 33.9297 137.266 34.0234C138.188 34.0547 139.117 33.3672 140.055 31.9609ZM147.953 30.0391C148.094 25.7578 149.164 21.7031 151.164 17.875C153.164 14.0469 155.711 12.1641 158.805 12.2266C160.414 12.3203 161.664 13.125 162.555 14.6406C163.227 15.6875 163.5 17.4609 163.375 19.9609C163.25 24.6953 161.953 29.0781 159.484 33.1094C157.781 36.0625 155.492 37.4844 152.617 37.375C151.602 37.3438 150.656 36.8984 149.781 36.0391C148.469 34.7891 147.859 32.7891 147.953 30.0391ZM156.133 31.9609C158.305 28.5391 159.453 24.7109 159.578 20.4766C159.609 18.6016 159.508 17.3438 159.273 16.7031C159.055 16.0625 158.586 15.7344 157.867 15.7188C157.148 15.7031 156.492 16.0391 155.898 16.7266C155.305 17.4141 154.727 18.3672 154.164 19.5859C152.742 22.4297 151.969 25.7578 151.844 29.5703C151.781 32.4453 152.281 33.9297 153.344 34.0234C154.266 34.0547 155.195 33.3672 156.133 31.9609ZM177.297 16.2578C175.703 15.3672 174.367 15.3047 173.289 16.0703C172.227 16.8359 171.203 18.5391 170.219 21.1797C169.25 23.8203 168.539 26.1406 168.086 28.1406C167.648 30.1406 167.586 31.5234 167.898 32.2891C168.227 33.0547 168.758 33.2188 169.492 32.7812C170.992 31.8125 172.336 30.0312 173.523 27.4375C174.727 24.8281 175.984 21.1016 177.297 16.2578ZM184.984 1.67969L175.867 33.3438C176.789 32.6094 177.75 31.5547 178.75 30.1797C179.094 29.6641 179.492 29.5547 179.945 29.8516L181.094 30.625C181.609 30.9688 181.688 31.3672 181.328 31.8203C180.016 33.3516 178.805 34.5469 177.695 35.4062C176.602 36.25 175.305 36.8438 173.805 37.1875C173.352 37.2812 173.062 37.1094 172.938 36.6719L172.023 34.0234C171.383 34.9141 170.703 35.6562 169.984 36.25C169.266 36.8438 168.68 37.1406 168.227 37.1406H168.133C167.523 37.1406 166.711 36.6172 165.695 35.5703C164.695 34.5078 164.18 33.3672 164.148 32.1484C164.117 29.6484 164.82 26.3984 166.258 22.3984C167.711 18.3984 169.062 15.7812 170.312 14.5469C171.578 13.2969 173.141 12.6875 175 12.7188C176.062 12.7188 177.07 13.0078 178.023 13.5859L181.234 1.63281C181.438 0.929688 181.922 0.578125 182.688 0.578125H183.93C184.852 0.578125 185.203 0.945313 184.984 1.67969ZM205.281 13.5859C205.406 12.8359 205.773 12.4609 206.383 12.4609L207.484 12.4141C208.656 12.4453 209.086 13.0234 208.773 14.1484L203.008 33.3438C204.008 32.6094 205 31.5547 205.984 30.1797C206.344 29.6641 206.742 29.5547 207.18 29.8516L208.352 30.625C208.852 30.9688 208.93 31.3672 208.586 31.8203C207.273 33.3516 206.062 34.5469 204.953 35.4062C203.859 36.25 202.555 36.8438 201.039 37.1875C200.602 37.25 200.312 37.0781 200.172 36.6719L199.281 34.0234C198.375 35.2109 197.602 36.0312 196.961 36.4844C196.32 36.9219 195.828 37.1406 195.484 37.1406H195.391C195.125 37.1406 194.727 36.9609 194.195 36.6016C193.68 36.2266 193.164 35.7422 192.648 35.1484C192.133 34.5547 191.758 33.9062 191.523 33.2031C191.305 32.5 191.32 31.2266 191.57 29.3828C191.836 27.5234 192.57 24.9297 193.773 21.6016C194.977 18.2734 196.211 15.9531 197.477 14.6406C198.742 13.3281 200.328 12.6875 202.234 12.7188C203.297 12.7188 204.312 13.0078 205.281 13.5859ZM204.555 16.2578C202.852 15.3047 201.461 15.2891 200.383 16.2109C199.32 17.1172 198.273 18.9766 197.242 21.7891C196.227 24.6016 195.562 26.8125 195.25 28.4219C194.953 30.0156 194.828 31.1016 194.875 31.6797C194.922 32.2578 195.203 32.6797 195.719 32.9453C196.234 33.2109 197.086 32.6875 198.273 31.375C199.477 30.0625 200.523 28.2656 201.414 25.9844C202.32 23.7031 203.367 20.4609 204.555 16.2578ZM213.039 33.6484C214.602 34.5391 215.93 34.6094 217.023 33.8594C218.133 33.1094 219.211 31.2812 220.258 28.375C221.32 25.4531 222 23.1797 222.297 21.5547C222.609 19.9141 222.742 18.8047 222.695 18.2266C222.648 17.6484 222.359 17.2188 221.828 16.9375C221.312 16.6562 220.438 17.2266 219.203 18.6484C217.969 20.0703 216.914 21.8984 216.039 24.1328C215.18 26.3672 214.227 29.3906 213.18 33.2031L213.039 33.6484ZM218.125 13.6797L217.023 17.9453L217.68 16.8438C218.352 15.7188 219.117 14.7578 219.977 13.9609C220.852 13.1641 221.562 12.7656 222.109 12.7656H222.203C222.453 12.7656 222.852 12.9531 223.398 13.3281C223.945 13.6875 224.461 14.1797 224.945 14.8047C225.445 15.4297 225.797 16.0703 226 16.7266C226.219 17.3828 226.203 18.7109 225.953 20.7109C225.719 22.7109 224.961 25.3984 223.68 28.7734C222.398 32.1484 221.148 34.3984 219.93 35.5234C218.727 36.6328 217.195 37.1875 215.336 37.1875C214.273 37.1875 213.266 36.8984 212.312 36.3203L209.969 45.5547C209.766 46.2578 209.281 46.6094 208.516 46.6094H207.648C207.133 46.6094 206.773 46.4609 206.57 46.1641C206.367 45.8828 206.312 45.5156 206.406 45.0625L214.469 13.6328C214.656 12.9609 215.086 12.625 215.758 12.625H217.164C217.992 12.625 218.312 12.9766 218.125 13.6797ZM230.523 33.6484C232.086 34.5391 233.414 34.6094 234.508 33.8594C235.617 33.1094 236.695 31.2812 237.742 28.375C238.805 25.4531 239.484 23.1797 239.781 21.5547C240.094 19.9141 240.227 18.8047 240.18 18.2266C240.133 17.6484 239.844 17.2188 239.312 16.9375C238.797 16.6562 237.922 17.2266 236.688 18.6484C235.453 20.0703 234.398 21.8984 233.523 24.1328C232.664 26.3672 231.711 29.3906 230.664 33.2031L230.523 33.6484ZM235.609 13.6797L234.508 17.9453L235.164 16.8438C235.836 15.7188 236.602 14.7578 237.461 13.9609C238.336 13.1641 239.047 12.7656 239.594 12.7656H239.688C239.938 12.7656 240.336 12.9531 240.883 13.3281C241.43 13.6875 241.945 14.1797 242.43 14.8047C242.93 15.4297 243.281 16.0703 243.484 16.7266C243.703 17.3828 243.688 18.7109 243.438 20.7109C243.203 22.7109 242.445 25.3984 241.164 28.7734C239.883 32.1484 238.633 34.3984 237.414 35.5234C236.211 36.6328 234.68 37.1875 232.82 37.1875C231.758 37.1875 230.75 36.8984 229.797 36.3203L227.453 45.5547C227.25 46.2578 226.766 46.6094 226 46.6094H225.133C224.617 46.6094 224.258 46.4609 224.055 46.1641C223.852 45.8828 223.797 45.5156 223.891 45.0625L231.953 13.6328C232.141 12.9609 232.57 12.625 233.242 12.625H234.648C235.477 12.625 235.797 12.9766 235.609 13.6797Z" fill="#224F34"/>
</svg>
